<svg xmlns="http://www.w3.org/2000/svg" viewBox="0 0 19 19"><defs><style>.cls-1{fill:#fff;}</style></defs><title>Asset 1</title><g id="Layer_2" data-name="Layer 2"><g id="Layer_1-2" data-name="Layer 1"><path id="noun_avatar_2102861" data-name="noun avatar 2102861" class="cls-1" d="M17.14,13.82l-4.2-1.72a.59.59,0,0,1-.37-.55v-1a.56.56,0,0,1,.12-.35,8.27,8.27,0,0,0,1.72-5c0-3.1-2-5.19-4.91-5.19S4.59,2.09,4.59,5.19a8.27,8.27,0,0,0,1.72,5,.56.56,0,0,1,.12.35v1a.59.59,0,0,1-.37.55l-4.2,1.72A3,3,0,0,0,0,16.58v1.63A.79.79,0,0,0,.79,19H18.21a.79.79,0,0,0,.79-.79V16.58A3,3,0,0,0,17.14,13.82Zm.27,3.59H1.58v-.84a1.39,1.39,0,0,1,.87-1.29l4.2-1.72a2.17,2.17,0,0,0,1.36-2v-1a2.14,2.14,0,0,0-.47-1.34,6.73,6.73,0,0,1-1.37-4c0-2.66,1.72-3.61,3.33-3.61s3.33.95,3.33,3.61a6.73,6.73,0,0,1-1.37,4A2.15,2.15,0,0,0,11,10.57v1a2.17,2.17,0,0,0,1.36,2l4.2,1.72a1.39,1.39,0,0,1,.87,1.29Z"/></g></g></svg>