<svg xmlns="http://www.w3.org/2000/svg" viewBox="0 0 38 38"><defs><style>.cls-1{fill:#fbb03b;}</style></defs><title>cart-orange-rounded</title><g id="Layer_2" data-name="Layer 2"><g id="Layer_1-2" data-name="Layer 1"><g id="add_to_cart" data-name="add to cart"><circle id="Ellipse_96" data-name="Ellipse 96" class="cls-1" cx="19" cy="19" r="19"/><g id="noun_cart_2102832" data-name="noun cart 2102832"><path id="Path_5" data-name="Path 5" d="M11.69,12.88h1.15l1.72,7.77a2.47,2.47,0,0,0-1.4,2.28,2.35,2.35,0,0,0,2.22,2.46h9.12A.69.69,0,1,0,24.55,24H15.38a1.11,1.11,0,0,1,0-2.16h9.12a.69.69,0,0,0,.65-.45l2.32-6.44a.69.69,0,0,0-.65-.92H14.5l-.44-2a.69.69,0,0,0-.67-.54h-1.7a.69.69,0,0,0,0,1.38ZM25.83,15.4,24,20.47H15.93L14.8,15.4Z"/><path id="Path_6" data-name="Path 6" d="M15.93,26.63A.69.69,0,1,0,15.88,28h.93a.69.69,0,1,0,.05-1.37h-.93Z"/><path id="Path_7" data-name="Path 7" d="M22.27,26.63a.69.69,0,0,0,0,1.38h.87a.69.69,0,0,0,0-1.37Z"/></g></g></g></g></svg>