<svg xmlns="http://www.w3.org/2000/svg" viewBox="0 0 21.97 22"><defs><style>.cls-1{fill:#fff;}</style></defs><title>Asset 1</title><g id="Layer_2" data-name="Layer 2"><g id="Layer_1-2" data-name="Layer 1"><g id="noun_cart_2102832" data-name="noun cart 2102832"><path id="Path_5" data-name="Path 5" class="cls-1" d="M.89,1.83H2.42l2.3,10.35a3.29,3.29,0,0,0-1.87,3,3.13,3.13,0,0,0,3,3.27H18A.92.92,0,1,0,18,16.67H5.8a1.33,1.33,0,0,1-1.13-1.44A1.33,1.33,0,0,1,5.8,13.79H18a.92.92,0,0,0,.86-.61l3.1-8.59a.92.92,0,0,0-.86-1.23H4.63L4,.72A.92.92,0,0,0,3.15,0H.89a.92.92,0,0,0,0,1.83ZM19.75,5.2,17.31,12H6.54L5,5.2Z"/><path id="Path_6" data-name="Path 6" class="cls-1" d="M6.54,20.17a.92.92,0,0,0,0,1.83H7.71a.92.92,0,1,0,.06-1.83H6.54Z"/><path id="Path_7" data-name="Path 7" class="cls-1" d="M15,20.17A.92.92,0,0,0,15,22h1.16a.92.92,0,0,0,.06-1.83H15Z"/></g></g></g></svg>