<svg xmlns="http://www.w3.org/2000/svg" viewBox="0 0 169 36"><defs><style>.cls-1,.cls-2{fill:none;}.cls-2{stroke:#fbb03b;}.cls-3{fill:#fbb03b;}.cls-4{fill:#fff;}.cls-5{fill:#eee;}</style></defs><title>checkout-icons-1</title><g id="Layer_2" data-name="Layer 2"><g id="Layer_1-2" data-name="Layer 1"><g id="pills"><g id="unactive"><g id="Ellipse_132" data-name="Ellipse 132"><circle class="cls-1" cx="18" cy="18" r="18"/><circle class="cls-2" cx="18" cy="18" r="17.5"/></g><circle id="Ellipse_133" data-name="Ellipse 133" class="cls-3" cx="18" cy="18" r="18"/><g id="noun_cart_2102832" data-name="noun cart 2102832"><path id="Path_5" data-name="Path 5" class="cls-4" d="M9.73,11h1.22l1.83,8.24a2.62,2.62,0,0,0-1.49,2.42,2.49,2.49,0,0,0,2.36,2.6h9.67a.73.73,0,0,0,0-1.46H13.64a1.18,1.18,0,0,1,0-2.29h9.67A.73.73,0,0,0,24,20l2.46-6.83a.73.73,0,0,0-.69-1H12.71l-.47-2.1a.73.73,0,0,0-.71-.58H9.73a.73.73,0,1,0,0,1.46Zm15,2.68L22.8,19H14.23L13,13.64H24.73Z"/><path id="Path_6" data-name="Path 6" class="cls-4" d="M14.23,25.54a.73.73,0,0,0,0,1.46h.93a.73.73,0,1,0,0-1.46Z"/><path id="Path_7" data-name="Path 7" class="cls-4" d="M21,25.54A.73.73,0,0,0,21,27h.93a.73.73,0,1,0,0-1.46Z"/></g></g><rect id="Rectangle_691" data-name="Rectangle 691" class="cls-5" x="51" y="18" width="70" height="1"/><g id="active"><circle id="Ellipse_133-2" data-name="Ellipse 133" class="cls-4" cx="151" cy="18" r="18"/><path id="noun_delivery_1665162" data-name="noun delivery 1665162" class="cls-3" d="M158.29,12H147.66a.71.71,0,0,0-.71.71h0v3.53h-2.12a.71.71,0,0,0-.59.32l-2.12,3.2a.71.71,0,0,0-.12.39v3.19a.71.71,0,0,0,.71.71h0a2.47,2.47,0,0,0,4.89,0H152a2.47,2.47,0,0,0,4.89,0h1.45a.71.71,0,0,0,.71-.71h0V12.71a.71.71,0,0,0-.71-.71Zm-14.87,8.36,1.81-2.69H147V22l-.09-.07-.22-.18-.15-.1-.26-.13-.16-.08-.3-.09-.15,0a2.36,2.36,0,0,0-.47,0,2.33,2.33,0,0,0-.47,0l-.15,0-.29.09-.17.08-.24.13-.16.11-.2.17-.1.08Zm1.77,4.39a1.07,1.07,0,0,1-1.06-1.06,1.31,1.31,0,0,1,0-.21,1.06,1.06,0,0,1,2.08,0,1.19,1.19,0,0,1,0,.22,1.06,1.06,0,0,1-1.06,1.06Zm9.21,0a1.06,1.06,0,1,1,1-1.29,1.19,1.19,0,0,1,0,.22,1.07,1.07,0,0,1-1.06,1.07h0Zm2.24-2.13-.08-.15-.06-.11a2.89,2.89,0,0,0-.2-.26l0,0a2.49,2.49,0,0,0-.28-.26l-.08-.06-.23-.16-.12-.06-.23-.11-.13,0-.26-.07-.12,0a2.22,2.22,0,0,0-.8,0l-.12,0-.26.07-.13,0-.24.11-.11.06-.26.17-.07,0a2.56,2.56,0,0,0-.52.6l0,.08c0,.06-.07.11-.09.17h-3.79V13.41h9.21v2.13h-5a.71.71,0,1,0,0,1.42h5v5.66Z"/></g><g id="unactive-2" data-name="unactive"><g id="Ellipse_132-2" data-name="Ellipse 132"><circle class="cls-1" cx="151" cy="18" r="18"/><circle class="cls-2" cx="151" cy="18" r="17.5"/></g></g></g></g></g></svg>