<svg xmlns="http://www.w3.org/2000/svg" viewBox="0 0 18 11.3"><title>delivery</title><g id="Layer_2" data-name="Layer 2"><g id="Layer_1-2" data-name="Layer 1"><path id="noun_delivery_2057282" data-name="noun delivery 2057282" d="M17.81,6.24,14.56,3.57l-.12-.08h0l-.17,0H12.11V.51A.51.51,0,0,0,11.6,0H.51A.51.51,0,0,0,0,.51V9.31a.51.51,0,0,0,.51.51H2.19a2,2,0,0,0,3.91,0h6.25a2,2,0,0,0,3.91,0h1.23A.51.51,0,0,0,18,9.31V6.63A.51.51,0,0,0,17.81,6.24ZM13.75,4.46V5.88H12.11V4.46ZM1,1h10V8.8h-5A2,2,0,0,0,6,8.58.11.11,0,0,0,6,8.5a2,2,0,0,0-.17-.32l-.06-.07L5.61,7.9l-.1-.09-.18-.15-.12-.08L5,7.48l-.13-.06-.24-.08-.12,0a1.9,1.9,0,0,0-.76,0l-.12,0-.24.08-.13.06-.21.11L3,7.67l-.19.15-.09.08a2,2,0,0,0-.19.23l0,.05a2,2,0,0,0-.18.33.13.13,0,0,1,0,.08,2,2,0,0,0-.08.22H1Zm3.13,9.3a1.06,1.06,0,1,0-1.08-1,1.06,1.06,0,0,0,1.08,1Zm10.16,0a1.06,1.06,0,1,0-1.08-1,1.06,1.06,0,0,0,1.08,1ZM17,8.8h-.74a2,2,0,0,0-.08-.22.11.11,0,0,0,0-.09A2,2,0,0,0,16,8.17l-.06-.07-.17-.21-.1-.09-.18-.15-.12-.08-.2-.11L15,7.42l-.24-.08-.12,0a1.9,1.9,0,0,0-.76,0l-.12,0-.24.08-.13.06-.21.11-.11.08-.19.15-.09.08a2,2,0,0,0-.19.23l0,.05a2,2,0,0,0-.18.33.13.13,0,0,1,0,.08,2,2,0,0,0-.08.22H12.1V6.9h2.13a.51.51,0,0,0,.51-.51V5L17,6.88Z"/></g></g></svg>