<svg xmlns="http://www.w3.org/2000/svg" viewBox="0 0 52.11 67"><defs><style>.cls-1{opacity:0.1;}</style></defs><title>description</title><g id="Layer_2" data-name="Layer 2"><g id="Layer_1-2" data-name="Layer 1"><g id="noun_description_192324" data-name="noun description 192324" class="cls-1"><path id="Path_101" data-name="Path 101" d="M52.11,65.14v-54a2.14,2.14,0,0,0-.52-1.34L42.28.52A2.14,2.14,0,0,0,40.94,0H1.86A1.84,1.84,0,0,0,0,1.82s0,0,0,0V65.14A1.84,1.84,0,0,0,1.82,67H50.25a1.84,1.84,0,0,0,1.86-1.82S52.11,65.15,52.11,65.14ZM40.94,4.47l6.7,6.7h-6.7Zm7.44,58.81H3.72V3.72h33.5V13A1.84,1.84,0,0,0,39,14.89h9.34Z"/><path id="Path_102" data-name="Path 102" d="M39.08,29.78H13a1.86,1.86,0,0,0,0,3.72H39.08a1.86,1.86,0,1,0,0-3.72Z"/><path id="Path_103" data-name="Path 103" d="M13,22.33a1.86,1.86,0,0,0,0,3.72H39.08a1.86,1.86,0,1,0,0-3.72H13Z"/><path id="Path_104" data-name="Path 104" d="M39.08,37.22H13a1.86,1.86,0,0,0,0,3.72H39.08a1.86,1.86,0,1,0,0-3.72Z"/><path id="Path_105" data-name="Path 105" d="M39.08,44.67H13a1.86,1.86,0,1,0,0,3.72H39.08a1.86,1.86,0,1,0,0-3.72Z"/><path id="Path_106" data-name="Path 106" d="M39.08,52.11H13a1.86,1.86,0,1,0,0,3.72H39.08a1.86,1.86,0,1,0,0-3.72Z"/></g></g></g></svg>