<svg xmlns="http://www.w3.org/2000/svg" viewBox="0 0 38 38"><defs><style>.cls-1{fill:#fff;}</style></defs><title>eye-white-rounded</title><g id="Layer_2" data-name="Layer 2"><g id="Layer_1-2" data-name="Layer 1"><g id="view_product" data-name="view product"><circle id="Ellipse_97" data-name="Ellipse 97" class="cls-1" cx="19" cy="19" r="19"/><g id="noun_View_2149087" data-name="noun View 2149087"><path id="Path_183" data-name="Path 183" d="M27.46,17a10.27,10.27,0,0,0-7.87-3.67h0a10.5,10.5,0,0,0-8,3.75l-1.38,1.64a.73.73,0,0,0,0,.94l1.31,1.59A10.24,10.24,0,0,0,19.4,25h0a10.51,10.51,0,0,0,8.09-3.82l1.33-1.6a.74.74,0,0,0,0-.94Zm-1.08,3.23a9.05,9.05,0,0,1-7,3.29h0a8.81,8.81,0,0,1-6.81-3.21l-.92-1.12,1-1.18a9.06,9.06,0,0,1,6.92-3.23h0A8.83,8.83,0,0,1,26.35,18l1,1.16Z"/><path id="Path_184" data-name="Path 184" d="M19.49,16a3.17,3.17,0,1,0,3.16,3.17h0A3.17,3.17,0,0,0,19.49,16Zm0,4.87a1.71,1.71,0,1,1,1.71-1.71h0A1.71,1.71,0,0,1,19.49,20.88Z"/></g></g></g></g></svg>