<svg xmlns="http://www.w3.org/2000/svg" viewBox="0 0 8.11 14.99"><title>facebook-black</title><g id="Layer_2" data-name="Layer 2"><g id="_002-facebook-logo" data-name=" 002-facebook-logo"><path id="Path_70" data-name="Path 70" d="M7.8,0H5.85A3.41,3.41,0,0,0,2.26,3.69v1.7h-2A.31.31,0,0,0,0,5.7V8.16a.31.31,0,0,0,.31.31h2v6.22a.31.31,0,0,0,.3.31H5.11a.31.31,0,0,0,.31-.31V8.47H7.7A.31.31,0,0,0,8,8.16H8V5.7a.31.31,0,0,0-.31-.31H5.42V4c0-.69.17-1,1.07-1H7.8a.31.31,0,0,0,.31-.31V.31A.31.31,0,0,0,7.8,0Z"/></g></g></svg>