<svg xmlns="http://www.w3.org/2000/svg" viewBox="0 0 9.37 17.33"><defs><style>.cls-1{fill:#c5c5c5;}</style></defs><title>facebook-gray</title><g id="Layer_2" data-name="Layer 2"><g id="_002-facebook-logo" data-name=" 002-facebook-logo"><path id="Path_70" data-name="Path 70" class="cls-1" d="M9,0H6.77A3.95,3.95,0,0,0,2.61,4.27v2H.35A.35.35,0,0,0,0,6.59H0V9.44a.35.35,0,0,0,.35.35H2.61V17a.35.35,0,0,0,.35.35H5.91A.35.35,0,0,0,6.27,17h0V9.79H8.91a.35.35,0,0,0,.35-.35h0V6.59a.35.35,0,0,0-.35-.35H6.27V4.57c0-.8.19-1.21,1.23-1.21H9A.35.35,0,0,0,9.37,3h0V.36A.35.35,0,0,0,9,0Z"/></g></g></svg>