<svg xmlns="http://www.w3.org/2000/svg" viewBox="0 0 18 13.01"><title>fast-delivery</title><g id="Layer_2" data-name="Layer 2"><g id="Layer_1-2" data-name="Layer 1"><g id="noun_Fast_Delivery_1212438" data-name="noun Fast Delivery 1212438"><path id="Path_200" data-name="Path 200" d="M10.08,0H1.59A1.59,1.59,0,0,0,0,1.59V9.72A1.59,1.59,0,0,0,1.59,11.3h.84a2.17,2.17,0,0,0,4.24,0h5.6a2.17,2.17,0,0,0,4.24,0H18V6.62a2.53,2.53,0,0,0-.34-1.27l-.93-1.61a2,2,0,0,0-1.71-1H11.66V1.59A1.59,1.59,0,0,0,10.08,0ZM.93,9.72V1.59A.65.65,0,0,1,1.59.93h8.49a.65.65,0,0,1,.65.65v8.78H6.67a2.17,2.17,0,0,0-4.24,0H1.59a.65.65,0,0,1-.66-.65Zm3.61,2.36a1.24,1.24,0,1,1,1.24-1.24h0A1.24,1.24,0,0,1,4.55,12.08Zm9.84,0a1.24,1.24,0,1,1,1.24-1.24,1.24,1.24,0,0,1-1.24,1.24Zm2.12-1.7a2.17,2.17,0,0,0-4.24,0h-.61V6.56h5.39v3.81ZM15,3.7a1,1,0,0,1,.89.51l.82,1.42H11.66V3.7Z"/><path id="Path_201" data-name="Path 201" d="M5.88,8.21A3.14,3.14,0,1,0,2.75,5.07h0A3.14,3.14,0,0,0,5.88,8.21Zm0-5.34a2.21,2.21,0,1,1-2.2,2.21s0,0,0,0a2.21,2.21,0,0,1,2.2-2.2Z"/><path id="Path_202" data-name="Path 202" d="M5.85,5.63h1a.47.47,0,0,0,0-.93H6.32V3.93a.47.47,0,0,0-.93,0V5.16a.47.47,0,0,0,.46.47Z"/></g></g></g></svg>