<svg xmlns="http://www.w3.org/2000/svg" viewBox="0 0 22 15.62"><title>filters</title><g id="Layer_2" data-name="Layer 2"><g id="Слой_2" data-name="Слой 2"><g id="Слой_1" data-name="Слой 1"><path id="Path_209" data-name="Path 209" d="M7.12,0A3.68,3.68,0,0,0,3.54,2.84H.85a.85.85,0,1,0,0,1.69H3.54a3.68,3.68,0,0,0,7.16,0H21.16a.85.85,0,0,0,0-1.69H10.7A3.68,3.68,0,0,0,7.12,0Zm0,5.69a2,2,0,1,1,2-2h0A2,2,0,0,1,7.12,5.69Z"/><path id="Path_210" data-name="Path 210" d="M14.91,8.25a3.68,3.68,0,0,0-3.58,2.84H.85a.85.85,0,1,0,0,1.69H11.3a3.68,3.68,0,0,0,7.16,0h2.69a.85.85,0,1,0,0-1.69H18.46A3.68,3.68,0,0,0,14.91,8.25Zm0,5.67a2,2,0,1,1,2-2,2,2,0,0,1-2,2Z"/></g></g></g></svg>