<svg xmlns="http://www.w3.org/2000/svg" viewBox="0 0 16.51 16.5"><title>hearth</title><g id="Layer_2" data-name="Layer 2"><g id="Layer_1-2" data-name="Layer 1"><path id="noun_Heart_2102871" data-name="noun Heart 2102871" d="M11.68,0A4.63,4.63,0,0,0,8.25,1.55,4.63,4.63,0,0,0,4.82,0,5,5,0,0,0,0,5.23C0,9.44,7.48,16,7.8,16.33a.69.69,0,0,0,.9,0c.32-.27,7.8-6.66,7.8-11.1A5,5,0,0,0,11.68,0ZM8.26,14.9C6,12.82,1.38,8,1.38,5.24A3.67,3.67,0,0,1,4.82,1.38,3.36,3.36,0,0,1,7.67,3.06a.69.69,0,0,0,1.17,0,3.36,3.36,0,0,1,2.84-1.68,3.67,3.67,0,0,1,3.45,3.86C15.13,8.18,10.53,12.88,8.26,14.9Z"/></g></g></svg>