<svg xmlns="http://www.w3.org/2000/svg" viewBox="0 0 15 15"><title>home</title><g id="Layer_2" data-name="Layer 2"><g id="Layer_1-2" data-name="Layer 1"><path id="noun_Home_2102808" data-name="noun Home 2102808" d="M1,6.91l.33-.28v7.74A.62.62,0,0,0,2,15H13a.62.62,0,0,0,.63-.62V6.63l.33.28a.62.62,0,0,0,.81-1l-3-2.53V1a.63.63,0,0,0-1.25,0V2.36L7.91.15a.62.62,0,0,0-.81,0L.23,5.95a.63.63,0,0,0,.78,1l0,0Zm5.07,6.84V9.24h2.8v4.51ZM7.51,1.44l4.9,4.13v8.18H10.16V8.61A.63.63,0,0,0,9.54,8h-4a.63.63,0,0,0-.62.62v5.14H2.62V5.58Z"/></g></g></svg>