<svg xmlns="http://www.w3.org/2000/svg" viewBox="0 0 17.5 17.5"><defs><style>.cls-1{fill:#c5c5c5;}</style></defs><title>instagram</title><g id="Layer_2" data-name="Layer 2"><g id="instagram"><path id="Path_74" data-name="Path 74" class="cls-1" d="M12.29,0H5.21A5.22,5.22,0,0,0,0,5.21v7.07A5.22,5.22,0,0,0,5.21,17.5h7.07a5.22,5.22,0,0,0,5.21-5.21V5.21A5.22,5.22,0,0,0,12.29,0Zm3.45,12.29a3.45,3.45,0,0,1-3.45,3.45H5.21a3.45,3.45,0,0,1-3.45-3.45h0V5.21A3.45,3.45,0,0,1,5.21,1.76h7.07a3.45,3.45,0,0,1,3.45,3.45h0v7.07Z"/><path id="Path_75" data-name="Path 75" class="cls-1" d="M8.75,4.22a4.53,4.53,0,1,0,4.53,4.53A4.53,4.53,0,0,0,8.75,4.22Zm0,7.29a2.77,2.77,0,1,1,2.77-2.77,2.77,2.77,0,0,1-2.77,2.77h0Z"/><circle id="Ellipse_5" data-name="Ellipse 5" class="cls-1" cx="13.28" cy="4.26" r="1.09"/></g></g></svg>