<svg xmlns="http://www.w3.org/2000/svg" viewBox="0 0 15.59 14.9"><defs><style>.cls-1{fill:#c5c5c5;}</style></defs><title>linkedin-gray</title><g id="Layer_2" data-name="Layer 2"><g id="_004-linkedin-logo" data-name=" 004-linkedin-logo"><path id="LinkedIn" class="cls-1" d="M15.59,9.14V14.9H12.25V9.53c0-1.35-.48-2.27-1.69-2.27A1.83,1.83,0,0,0,8.84,8.47a2.29,2.29,0,0,0-.11.82V14.9H5.39s0-9.11,0-10.05H8.73V6.28l0,0h0v0a3.32,3.32,0,0,1,3-1.66C13.94,4.62,15.59,6,15.59,9.14ZM1.89,0a1.74,1.74,0,1,0-.3,3.47h.28A1.74,1.74,0,0,0,2.16,0ZM.2,14.9H3.54V4.85H.2Z"/></g></g></svg>