<svg xmlns="http://www.w3.org/2000/svg" viewBox="0 0 512 426.68"><title>logo-black</title><g id="Layer_2" data-name="Layer 2"><g id="Layer_1-2" data-name="Layer 1"><path d="M362.67,0H309.34A53.4,53.4,0,0,1,256,53.34,53.39,53.39,0,0,1,202.67,0H149.34L0,85.34,42.67,202.67l64-21.34V426.68H405.34V181.34l64,21.34L512,85.34Zm93.7,175.87-44.3-14.77L384,151.74v253.6H128V151.74L99.92,161.1l-44.3,14.77L26.19,94.94,155,21.34h29.43A74.7,74.7,0,0,0,256,74.67a74.67,74.67,0,0,0,71.56-53.34H357l128.81,73.6Z"/></g></g></svg>