<svg xmlns="http://www.w3.org/2000/svg" viewBox="0 0 468.11 468.11"><defs><style>.cls-1{fill:#fbb03b;}.cls-2{opacity:0.1;isolation:isolate;}.cls-3{fill:#ebf0f3;}.cls-4{fill:#474c5b;}.cls-5{fill:#d5d6db;}.cls-6{fill:#4d5c7d;}</style></defs><title>logo</title><g id="Layer_2" data-name="Layer 2"><g id="Layer_1-2" data-name="Layer 1"><circle class="cls-1" cx="234.06" cy="234.06" r="234.06"/><path class="cls-2" d="M112.13,237.59l32.22,32.22v79.73l117,117c107.18-12.43,192.23-97.22,205.07-204.27L341.21,137.05l-3.58-3.8a47.78,47.78,0,0,0-3.69-3.51h0a47,47,0,0,0-14.12-8.27,46.48,46.48,0,0,0-16.16-2.89H261.48c-17.41,9.62-37.41,9.4-54.89,0H164.5a46.79,46.79,0,0,0-34,14.67L70.87,196.33,112,237.7Z"/><path class="cls-3" d="M337.64,133.24a46.83,46.83,0,0,0-34-14.66H267.74c0,.11,0,.2,0,.31a31.71,31.71,0,0,1-32.43,29c-14.05-.3-33.12-6.79-35.69-22.72a10.27,10.27,0,0,1,1-6.59H164.51a46.83,46.83,0,0,0-34,14.66L70.85,196.33,112,237.71l32.32-31V349.53H323.78V206.75l32.32,31,41.16-41.38Z"/><path class="cls-4" d="M144.34,337.31H323.78v12.22H144.34Z"/><path class="cls-5" d="M205.35,128.65s25.77,2.51,26.61,2.51,35.81-3.9,35.81-3.9l-11.7,18.67-19.51,5.85s-13.65.84-15.33-1.39-10.73-13-11.15-13.17S205.35,128.65,205.35,128.65Z"/><path class="cls-4" d="M261.47,118.58c-17.38,9.63-37.4,9.39-54.88,0l-.21,13a69.71,69.71,0,0,0,55.92-.35Z"/><path class="cls-6" d="M261.47,118.6c0,.05,0,.1,0,.15a27.44,27.44,0,0,1-54.88,0c0-.05,0-.1,0-.15H195.44c0,.05,0,.1,0,.15a38.61,38.61,0,1,0,77.21,0c0-.05,0-.1,0-.15Z"/><path class="cls-6" d="M272.64,118.58v.16a38.61,38.61,0,1,1-77.21,0v-.16h11.17v.16a27.44,27.44,0,0,0,54.88,0v-.16Z"/></g></g></svg>