<svg xmlns="http://www.w3.org/2000/svg" viewBox="0 0 30.15 67"><defs><style>.cls-1{opacity:0.1;}</style></defs><title>material</title><g id="Layer_2" data-name="Layer 2"><g id="Layer_1-2" data-name="Layer 1"><g id="outline_ใช้ส่ง_" data-name="outline ใช้ส่ง " class="cls-1"><path id="Path_107" data-name="Path 107" d="M7.82,67H22.33a7.83,7.83,0,0,0,7.82-7.82V36.85A1.12,1.12,0,0,0,29,35.73H25.68V1.12A1.12,1.12,0,0,0,24.57,0H14.52A1.12,1.12,0,0,0,13.4,1.12V35.73H11.17V17.87a1.13,1.13,0,0,0-.08-.42L8.85,11.87a1.12,1.12,0,0,0-2.08,0L4.55,17.45a1.13,1.13,0,0,0-.08.42V35.73H1.12A1.12,1.12,0,0,0,0,36.85H0V59.18A7.83,7.83,0,0,0,7.82,67ZM15.63,2.23h7.82V4.47H17.87V6.7h5.58V8.93H20.1v2.23h3.35V13.4H17.87v2.23h5.58v2.23H20.1V20.1h3.35v2.23H17.87v2.23h5.58V26.8H20.1V29h3.35v2.23H17.87V33.5h5.58v2.23H15.63ZM8.93,21.87,6.7,24.1V21.22H8.93ZM6.7,27.26,8.93,25v3.54L6.7,30.8Zm0-9.18,1.12-2.79,1.12,2.79V19H6.7ZM6.7,34l2.23-2.23v4H6.7ZM2.23,38H27.92V59.18a5.59,5.59,0,0,1-5.58,5.58H7.82a5.59,5.59,0,0,1-5.58-5.58Z"/><path id="Path_108" data-name="Path 108" d="M8.93,61.42H21.15a3.39,3.39,0,0,0,3.42-3.35V43.55a1.12,1.12,0,0,0-1.12-1.12H6.7a1.12,1.12,0,0,0-1.12,1.12h0V58.07a3.35,3.35,0,0,0,3.35,3.35ZM7.82,58.07V55.83h3.35v3.35H8.93a1.12,1.12,0,0,1-1.12-1.12Zm8.93-7.82V53.6H13.4V50.25ZM13.4,48V44.67h3.35V48ZM19,50.25h3.35V53.6H19ZM11.17,53.6H7.82V50.25h3.35Zm2.23,2.23h3.35v3.35H13.4Zm7.75,3.35H19V55.83h3.35v2.23A1.18,1.18,0,0,1,21.15,59.18ZM22.33,48H19V44.67h3.35ZM11.17,44.67V48H7.82V44.67Z"/></g></g></g></svg>