<svg xmlns="http://www.w3.org/2000/svg" viewBox="0 0 70 70"><defs><style>.cls-1{fill:#fff3df;}.cls-2{fill:#fbb03b;}</style></defs><title>money-back</title><g id="Layer_2" data-name="Layer 2"><g id="Layer_1-2" data-name="Layer 1"><g id="icon"><rect id="Rectangle_665" data-name="Rectangle 665" class="cls-1" width="70" height="70" rx="10" ry="10"/><g id="noun_guarantee_2519048" data-name="noun guarantee 2519048"><path id="Path_91" data-name="Path 91" class="cls-2" d="M49.23,23.34,35.8,19.43a1.07,1.07,0,0,0-.61,0h0l-13.42,3.9a1.07,1.07,0,0,0-.76,1V36.09C21,46.29,34.66,49.82,35.24,50a1.05,1.05,0,0,0,.54,0C36.62,49.75,50,46.2,50,36.09V24.37A1.07,1.07,0,0,0,49.23,23.34ZM47.85,36.09c0,7.84-10.55,11.22-12.35,11.72-1.8-.5-12.35-3.87-12.35-11.72V25.18l12.35-3.6,12.35,3.59Z"/><path id="Path_92" data-name="Path 92" class="cls-2" d="M34.43,28v1.13a3.22,3.22,0,0,0,.54,6.4h1.61a1.07,1.07,0,0,1,0,2.15H33.35a1.07,1.07,0,0,0,0,2.15h1.07v1.07a1.07,1.07,0,1,0,2.15,0V39.8a3.22,3.22,0,0,0,0-6.44H35a1.07,1.07,0,1,1,0-2.15h3.22a1.07,1.07,0,1,0,0-2.15H36.57V28a1.07,1.07,0,0,0-2.15,0Z"/></g></g></g></g></svg>