<svg xmlns="http://www.w3.org/2000/svg" viewBox="0 0 70 70"><defs><style>.cls-1{fill:#fff3df;}.cls-2{fill:#fbb03b;}</style></defs><title>payments</title><g id="Layer_2" data-name="Layer 2"><g id="Layer_1-2" data-name="Layer 1"><g id="icon"><rect id="Rectangle_664" data-name="Rectangle 664" class="cls-1" width="70" height="70" rx="10" ry="10"/><g id="noun_payment_2281176" data-name="noun payment 2281176"><path id="Path_87" data-name="Path 87" class="cls-2" d="M20.86,49.54a.72.72,0,1,1,.51-.21A.72.72,0,0,1,20.86,49.54Z"/><path id="Path_88" data-name="Path 88" class="cls-2" d="M24.67,52.55H18V50.82h4.94V42H18V40.25h6.67Z"/><path id="Path_89" data-name="Path 89" class="cls-2" d="M34.91,50.79h-9.1V42l.1-.19a5.68,5.68,0,0,1,2.42-2.28,7.49,7.49,0,0,1,6.13-.16,18,18,0,0,1,1.84.88c.49.26,1,.5,1.43.7a4.67,4.67,0,0,0,.62.18,2.77,2.77,0,0,1,2.12,1.35,4.06,4.06,0,0,1,.26,1.87l4.35-.06,2.26-2.5A2.36,2.36,0,0,1,50.83,45l-3.4,3.79Zm-7.37-1.73h7.23l11.78-1.9,3-3.34a.63.63,0,0,0-.94-.85L45.85,46l-10.69.16,0-1.73L39,44.41a2.77,2.77,0,0,0-.11-1.21c-.07-.15-.64-.29-1-.37a5.85,5.85,0,0,1-.87-.26c-.54-.23-1.06-.5-1.56-.76A16.41,16.41,0,0,0,33.85,41a5.77,5.77,0,0,0-4.71.08,4.14,4.14,0,0,0-1.59,1.38Z"/><path id="Path_90" data-name="Path 90" class="cls-2" d="M52.5,21.91V20.07l-5.5-2L36.38,23.51H27.21V36.36h21V32.72l.85,0,.52,0a8.7,8.7,0,0,0,2.88-.51V30.42h0a7.09,7.09,0,0,1-3.26.61l-1,0c-.55,0-1.12,0-1.72,0-.83,0-1.72.09-2.69.19l-1.06.11a1,1,0,1,1-.28-2h0l4-.7h0a2.54,2.54,0,0,0,1.72-1.16,2.57,2.57,0,0,0-2.17-3.94H40.15l7-3.58Zm-6.42,3.33a.82.82,0,0,1,.45.13.85.85,0,0,1,0,1.44.83.83,0,0,1-.3.11l-4,.7A2.73,2.73,0,0,0,42.68,33H43s2.81-.26,3.58-.29v1.9H28.94v-9.4Z"/><rect id="Rectangle_484" data-name="Rectangle 484" class="cls-2" x="36.98" y="29.08" width="1.73" height="1.73"/></g></g></g></g></svg>