<svg xmlns="http://www.w3.org/2000/svg" viewBox="0 0 70 70"><defs><style>.cls-1{fill:#fff3df;}.cls-2{fill:#fbb03b;}</style></defs><title>finest-quality</title><g id="Layer_2" data-name="Layer 2"><g id="Layer_1-2" data-name="Layer 1"><g id="icon"><rect id="Rectangle_666" data-name="Rectangle 666" class="cls-1" width="70" height="70" rx="10" ry="10"/><g id="noun_materials_308312" data-name="noun materials 308312"><circle id="Ellipse_47" data-name="Ellipse 47" class="cls-2" cx="30.91" cy="39.74" r="1.03"/><path id="Path_111" data-name="Path 111" class="cls-2" d="M55.27,17.33H32.13V28.86H21V52H44.14V40.47H55.27Zm-1.8,4.93-9.33,9.33V28.86H40.71l9.65-9.65-.08-.08h3.19v3.13ZM42.34,40.41c-1.55-.26-3.95-.55-4.81,2.35a19,19,0,0,1-2.72,4.77,15.35,15.35,0,0,0-1.64,2.66H30.32a6.19,6.19,0,0,1,1.29-3.81A6.1,6.1,0,0,1,33,45.24,6.18,6.18,0,0,0,36,40.57a8.93,8.93,0,0,0-.6-5.11,9.08,9.08,0,0,1-.65-4.8h2.64c.07.37.14.75.2,1.15.38,2.28.85,5.11,3.87,6.66l.35.19a1.29,1.29,0,0,0,.48.32v1.43ZM27.7,42a8.25,8.25,0,0,1,.18-2.74,7.64,7.64,0,0,1,1.23-2.49,10.33,10.33,0,0,0,2-6.12H33a10.8,10.8,0,0,0,.76,5.42,7.22,7.22,0,0,1,.52,4.21,4.43,4.43,0,0,1-2.32,3.47,7.59,7.59,0,0,0-1.74,1.5,8,8,0,0,0-1.69,4.94H26.63A21.93,21.93,0,0,0,27.7,42Zm14.64-5.14h0c-2.22-1.14-2.56-3.19-2.92-5.36,0-.28-.1-.57-.15-.86h3.08Zm-8.41-9.61,8.13-8.13h5.82l-9.73,9.73H33.93Zm5.59-8.13-5.59,5.59V19.13ZM25.6,30.66a28.13,28.13,0,0,1-1.68,4.65c-.37.87-.75,1.78-1.12,2.73V30.66ZM22.8,44.41A38.45,38.45,0,0,1,25.58,36a25.65,25.65,0,0,0,1.85-5.34h1.88a8.55,8.55,0,0,1-1.7,5.13,9.33,9.33,0,0,0-1.48,3,9.94,9.94,0,0,0-.23,3.28,21,21,0,0,1-1.14,8.09h-2V44.41ZM35.19,50.2c.31-.5.74-1.12,1.09-1.62a20.25,20.25,0,0,0,3-5.29c.41-1.36,1.13-1.37,3-1.06l.12,0v8Zm8.95-16.06,9.33-9.33v6.07l-7.79,7.79H44.14Zm4.08,4.53,5.24-5.24v5.24Z"/></g></g></g></g></svg>