<svg xmlns="http://www.w3.org/2000/svg" viewBox="0 0 70 70"><defs><style>.cls-1{fill:#fff3df;}.cls-2{fill:#fbb03b;}</style></defs><title>shipping</title><g id="Layer_2" data-name="Layer 2"><g id="Layer_1-2" data-name="Layer 1"><g id="icon"><rect id="Rectangle_660" data-name="Rectangle 660" class="cls-1" width="70" height="70" rx="10" ry="10"/><g id="Group_179" data-name="Group 179"><path id="Path_189" data-name="Path 189" class="cls-2" d="M52.62,32.16l-1.7-3.95a3.9,3.9,0,0,0-3.6-2.36H44.57v-1a1.51,1.51,0,0,0-1.51-1.51H23.86a1,1,0,0,0-1,1s0,0,0,0a1,1,0,0,0,1,1H42.48v7.43a1.65,1.65,0,0,0,1.64,1.67h6.73v4.68a.35.35,0,0,1-.35.35H49.25A3.72,3.72,0,0,0,46,37.62a3.81,3.81,0,0,0-3.21,1.86H32.49a3.73,3.73,0,0,0-3.21-1.86,3.81,3.81,0,0,0-3.21,1.86H22.5a1,1,0,1,0-.06,2h3.12a3.72,3.72,0,0,0,7.43,0h9.33a3.72,3.72,0,0,0,7.43,0h.81a2.37,2.37,0,0,0,2.36-2.36V33.71A4.41,4.41,0,0,0,52.62,32.16ZM29.28,43a1.7,1.7,0,1,1,1.7-1.7A1.72,1.72,0,0,1,29.28,43ZM46,43a1.7,1.7,0,1,1,1.7-1.7A1.72,1.72,0,0,1,46,43ZM44.53,27.9h2.75A1.81,1.81,0,0,1,49,29l1.47,3.41H44.53Z"/><path id="Path_190" data-name="Path 190" class="cls-2" d="M21,29.57h7.12a1,1,0,1,0,.06-2H21a1,1,0,0,0-1,1s0,0,0,0A1,1,0,0,0,21,29.57Z"/><path id="Path_191" data-name="Path 191" class="cls-2" d="M19.06,33.44h7.12a1,1,0,0,0,.06-2H19.06a1,1,0,0,0-1,1s0,0,0,0A1,1,0,0,0,19.06,33.44Z"/><path id="Path_192" data-name="Path 192" class="cls-2" d="M25.33,36.3a1,1,0,0,0-1-1H17.16a1,1,0,1,0-.06,2h7.19a1,1,0,0,0,1-.92S25.33,36.33,25.33,36.3Z"/></g></g></g></g></svg>