<svg xmlns="http://www.w3.org/2000/svg" viewBox="0 0 39 39"><defs><style>.cls-1{fill:#fff3df;}.cls-2{fill:#fbb03b;}</style></defs><title>Asset 1</title><g id="Layer_2" data-name="Layer 2"><g id="Layer_1-2" data-name="Layer 1"><g id="Group_209" data-name="Group 209"><rect id="Rectangle_661" data-name="Rectangle 661" class="cls-1" width="39" height="39" rx="10" ry="10"/><g id="noun_Happy_1563582" data-name="noun Happy 1563582"><path id="Path_193" data-name="Path 193" class="cls-2" d="M16.78,17.17a.72.72,0,0,1,.72.72h0a.72.72,0,1,0,1.44,0,2.17,2.17,0,0,0-4.33,0,.72.72,0,0,0,1.44,0,.72.72,0,0,1,.72-.72Z"/><path id="Path_194" data-name="Path 194" class="cls-2" d="M22.56,15.72a2.17,2.17,0,0,0-2.17,2.17.72.72,0,1,0,1.44,0,.72.72,0,0,1,1.44,0,.72.72,0,0,0,1.44,0A2.17,2.17,0,0,0,22.56,15.72Z"/><path id="Path_195" data-name="Path 195" class="cls-2" d="M19.67,10.67a8.67,8.67,0,1,0,8.67,8.67,8.67,8.67,0,0,0-8.67-8.67Zm0,15.89a7.22,7.22,0,1,1,7.22-7.22h0A7.22,7.22,0,0,1,19.67,26.56Z"/><path id="Path_196" data-name="Path 196" class="cls-2" d="M22,21l-.42.42a2.83,2.83,0,0,1-3.91,0L17.29,21a.72.72,0,0,0-1,1l.42.42a4.21,4.21,0,0,0,5.95,0h0l.42-.42a.72.72,0,1,0-1-1.05l0,0Z"/></g></g></g></g></svg>