<svg xmlns="http://www.w3.org/2000/svg" viewBox="0 0 615.93 512"><title>store-black</title><g id="Layer_2" data-name="Layer 2"><g id="Layer_1-2" data-name="Layer 1"><path d="M601.94,118.6,537,15a32,32,0,0,0-27.1-15h-404a32,32,0,0,0-27.1,15L13.94,118.6c-33.5,53.5-3.8,127.9,58.8,136.4a103.92,103.92,0,0,0,13.7.9,98.74,98.74,0,0,0,73.8-33.1,98.82,98.82,0,0,0,147.6,0,98.82,98.82,0,0,0,147.6,0,99.07,99.07,0,0,0,73.8,33.1,102.81,102.81,0,0,0,13.7-.9C605.74,246.6,635.54,172.2,601.94,118.6ZM529.44,288a126.88,126.88,0,0,1-29.5-3.8V384h-384V284.2a132.48,132.48,0,0,1-29.5,3.8,134.93,134.93,0,0,1-18-1.2A125.76,125.76,0,0,1,52,283.2V480a32,32,0,0,0,32,32H532a32,32,0,0,0,32-32V283.2a102.1,102.1,0,0,1-16.4,3.6,139.07,139.07,0,0,1-18.2,1.2Z"/></g></g></svg>