<svg xmlns="http://www.w3.org/2000/svg" viewBox="0 0 16 13"><title>twitter-black</title><g id="Layer_2" data-name="Layer 2"><g id="_001-twitter-logo-silhouette" data-name=" 001-twitter-logo-silhouette"><g id="Group_25" data-name="Group 25"><path id="Path_69" data-name="Path 69" d="M16,1.53a6.56,6.56,0,0,1-1.89.52A3.3,3.3,0,0,0,15.56.24a6.62,6.62,0,0,1-2.09.8A3.28,3.28,0,0,0,7.88,4,9.32,9.32,0,0,1,1.11.6,3.29,3.29,0,0,0,2.13,5,3.28,3.28,0,0,1,.64,4.57v0A3.29,3.29,0,0,0,3.27,7.83a3.33,3.33,0,0,1-.87.11,3.15,3.15,0,0,1-.62-.06,3.29,3.29,0,0,0,3.07,2.27,6.59,6.59,0,0,1-4.08,1.4,7,7,0,0,1-.78,0A9.28,9.28,0,0,0,5,13a9.28,9.28,0,0,0,9.34-9.21s0-.09,0-.13V3.23A6.55,6.55,0,0,0,16,1.53Z"/></g></g></g></svg>