<svg xmlns="http://www.w3.org/2000/svg" viewBox="0 0 18.5 15.02"><defs><style>.cls-1{fill:#c5c5c5;}</style></defs><title>twitter-gray</title><g id="Layer_2" data-name="Layer 2"><g id="_001-twitter-logo-silhouette" data-name=" 001-twitter-logo-silhouette"><g id="Group_25" data-name="Group 25"><path id="Path_69" data-name="Path 69" class="cls-1" d="M18.5,1.77a7.58,7.58,0,0,1-2.18.6A3.81,3.81,0,0,0,18,.27a7.65,7.65,0,0,1-2.41.92A3.8,3.8,0,0,0,9.11,4.65a10.78,10.78,0,0,1-7.82-4A3.8,3.8,0,0,0,2.46,5.75,3.8,3.8,0,0,1,.75,5.28v0A3.8,3.8,0,0,0,3.79,9a3.84,3.84,0,0,1-1,.13,3.64,3.64,0,0,1-.71-.07,3.8,3.8,0,0,0,3.54,2.64A7.62,7.62,0,0,1,.91,13.37,8.07,8.07,0,0,1,0,13.32,10.73,10.73,0,0,0,5.82,15,10.73,10.73,0,0,0,16.62,4.37q0-.08,0-.15V3.73A7.58,7.58,0,0,0,18.5,1.77Z"/></g></g></g></svg>