<svg xmlns="http://www.w3.org/2000/svg" viewBox="0 0 19.52 13.42"><title>youtube-black</title><g id="Layer_2" data-name="Layer 2"><g id="_005-youtube" data-name=" 005-youtube"><g id="Group_32" data-name="Group 32"><path id="Path_73" data-name="Path 73" d="M18.69,1.29C18.16.35,17.59.18,16.42.11S12.31,0,9.76,0,4.27,0,3.1.11,1.36.35.83,1.29,0,3.85,0,6.71H0c0,2.84.28,4.47.83,5.4s1.11,1.12,2.27,1.19,4.11.11,6.66.11,5.49,0,6.66-.11,1.75-.25,2.27-1.19.83-2.56.83-5.4h0C19.52,3.85,19.24,2.23,18.69,1.29ZM7.32,10.37V3.05l6.1,3.66Z"/></g></g></g></svg>